# xmcd
#
# Track frame offsets:
#	150
#	17614
#	36295
#	53171
#	68422
#	84762
#	95613
#	109394
#	128527
#	139941
#	154589
#	174057
#	191476
#	203283
#	222168
#	240290
#	251098
#	261666
#	272963
#	290736
#
# Disc length: 4070 seconds
#
# Revision: 1
# Processed by: cddbd v1.5.2PL0 Copyright (c) Steve Scherf et al.
# Submitted via: EasyCDDAExtractor 12.0.1.1
#
DISCID=140fe414
DTITLE=Various Artist - The Ultimate Latin Album 8 CD1
DYEAR=2007
DGENRE=Latin
TTITLE0=Rosario - SB 50 - Rumba Del Bongo
TTITLE1=Jon Secada - SB 50 - Me Enfermas
TTITLE2=Blestyaschie and Arash - SB 50 - Vostochnie Skazkie
TTITLE3=Ignatius Jones - SB 50 - Rumba De Burros
TTITLE4=D. Hirschfelder and Bogo Pogo Orchestra - SB 50 - Tequila Sinful Mix
TTITLE5=Gennaro and Troy White - SB 50 - Work That Body
TTITLE6=Lil Lindfors - SB 49 - Mas Que Nada
TTITLE7=Marcela Morelo - SB 48 - Gotitas
TTITLE8=Edmundo Ros Orchestra - SB 51 - Doki No Sakura
TTITLE9=James Last Orchestra - SB 51 - Happy Brazilia
TTITLE10=Jose Luis Rodriguez - CC 31 - Boca Dulce Boca
TTITLE11=Nina Miranda - CC 31 - Yes Sir I Can Boogie
TTITLE12=Wilson Simonal - CC 30 - Nem Vem Que Nao Tem
TTITLE13=Pamela and Gennaro - CC 31 - I Will Survive
TTITLE14=Aterciopelagos - CC 31 - El Album
TTITLE15=Gennaro and Troy White - CC 31 - Straight To My Heart
TTITLE16=Edmundo Ros Orchestra - CC 30 - As Time Goes By
TTITLE17=Edmundo Ros Orchestra - CC 30 - I Talk To The Trees
TTITLE18=Pablo Marques Y Soy  Orchestra - CC 31 - Banana Cha
TTITLE19=Senor Coconut and His Orchestra - CC 31 - Smooth Operator
EXTD=
EXTT0=
EXTT1=
EXTT2=
EXTT3=
EXTT4=
EXTT5=
EXTT6=
EXTT7=
EXTT8=
EXTT9=
EXTT10=
EXTT11=
EXTT12=
EXTT13=
EXTT14=
EXTT15=
EXTT16=
EXTT17=
EXTT18=
EXTT19=
PLAYORDER=
